<?xml version="1.0" encoding="utf-8"?>
<!-- Generator: Adobe Illustrator 18.1.1, SVG Export Plug-In . SVG Version: 6.00 Build 0)  -->
<svg version="1.1" id="Calque_1" xmlns="http://www.w3.org/2000/svg" xmlns:xlink="http://www.w3.org/1999/xlink" x="0px" y="0px"
	 viewBox="0 0 332.1 110.5" enable-background="new 0 0 332.1 110.5" xml:space="preserve">
<g>
	<defs>
		<rect id="SVGID_1_" x="-275.4" y="-243" width="841.9" height="595.3"/>
	</defs>
	<clipPath id="SVGID_2_">
		<use xlink:href="#SVGID_1_"  overflow="visible"/>
	</clipPath>
	<g clip-path="url(#SVGID_2_)">
		<path fill="#FFFFFF" d="M150.4,45.6c1.1,1.2,2.4,2.1,3.9,2.8c1.5,0.7,3.2,1,5.1,1c1.9,0,3.6-0.3,5.1-1c1.5-0.7,2.9-1.6,3.9-2.8
			c1.1-1.2,1.9-2.5,2.5-4.1c0.6-1.5,0.9-3.2,0.9-4.9c0,0,0,0,0-0.1c0-1.7-0.3-3.3-0.9-4.8c-0.6-1.5-1.4-2.9-2.5-4
			c-1.1-1.2-2.4-2.1-3.9-2.8c-1.5-0.7-3.2-1-5.1-1c-1.9,0-3.6,0.3-5.1,1c-1.5,0.7-2.8,1.6-3.9,2.8c-1.1,1.2-1.9,2.5-2.5,4.1
			c-0.6,1.5-0.9,3.2-0.9,4.9v0.1c0,1.7,0.3,3.3,0.9,4.8C148.5,43.1,149.3,44.4,150.4,45.6 M148.9,36.6c0-1.5,0.3-3,0.8-4.3
			c0.5-1.3,1.2-2.5,2.2-3.5c0.9-1,2-1.8,3.3-2.4c1.3-0.6,2.7-0.9,4.2-0.9c1.5,0,2.9,0.3,4.2,0.9c1.3,0.6,2.4,1.4,3.3,2.4
			c0.9,1,1.7,2.2,2.2,3.5c0.5,1.4,0.8,2.8,0.8,4.3v0.1c0,1.5-0.3,3-0.8,4.3c-0.5,1.3-1.2,2.5-2.2,3.5s-2,1.8-3.3,2.4
			c-1.3,0.6-2.7,0.9-4.2,0.9c-1.5,0-2.9-0.3-4.2-0.9c-1.3-0.6-2.4-1.4-3.3-2.4c-0.9-1-1.7-2.2-2.2-3.5
			C149.2,39.6,148.9,38.2,148.9,36.6L148.9,36.6z"/>
		<polygon fill="#FFFFFF" points="177.9,27 195.3,49 196.6,49 196.6,24.3 194.9,24.3 194.9,45.8 177.8,24.3 176.1,24.3 176.1,49 
			177.9,49 		"/>
		<path fill="#FFFFFF" d="M136.1,55.4c-0.8-0.7-1.8-1.3-3-1.7c-1.2-0.4-2.5-0.6-3.9-0.6h-9.7v24.7h4.3v-7.9h4.9
			c1.4,0,2.7-0.2,3.9-0.5c1.2-0.4,2.3-0.9,3.1-1.6c0.9-0.7,1.6-1.6,2.1-2.6c0.5-1,0.8-2.3,0.8-3.7v-0.1c0-1.2-0.2-2.4-0.7-3.4
			C137.5,57,136.9,56.1,136.1,55.4 M134.2,61.5c0,1.3-0.5,2.4-1.4,3.2c-1,0.8-2.3,1.2-3.9,1.2h-5.1V57h5.1c1.6,0,2.9,0.4,3.9,1.1
			C133.7,58.9,134.2,60,134.2,61.5L134.2,61.5z"/>
		<path fill="#FFFFFF" d="M163.2,56.4c-1.1-1.2-2.5-2.1-4.1-2.7c-1.6-0.7-3.3-1-5.2-1c-1.9,0-3.6,0.3-5.2,1
			c-1.6,0.7-2.9,1.6-4.1,2.8c-1.2,1.2-2,2.5-2.7,4.1c-0.6,1.5-1,3.2-1,4.9v0.1c0,1.7,0.3,3.4,1,4.9c0.6,1.5,1.5,2.9,2.6,4
			c1.1,1.2,2.5,2.1,4.1,2.7c1.6,0.7,3.3,1,5.2,1s3.6-0.3,5.2-1c1.6-0.7,2.9-1.6,4.1-2.8c1.2-1.2,2-2.5,2.7-4.1c0.6-1.5,1-3.2,1-4.9
			v-0.1c0-1.7-0.3-3.4-1-4.9C165.2,58.9,164.3,57.6,163.2,56.4 M162.2,65.6c0,1.2-0.2,2.3-0.6,3.4c-0.4,1.1-1,2-1.7,2.8
			c-0.7,0.8-1.6,1.4-2.6,1.9c-1,0.5-2.1,0.7-3.4,0.7s-2.3-0.2-3.4-0.7c-1-0.5-1.9-1.1-2.7-1.9c-0.7-0.8-1.3-1.7-1.7-2.8
			c-0.4-1.1-0.6-2.2-0.6-3.4v-0.1c0-1.2,0.2-2.3,0.6-3.4c0.4-1.1,1-2,1.7-2.8c0.7-0.8,1.6-1.4,2.6-1.9c1-0.5,2.1-0.7,3.4-0.7
			c1.2,0,2.3,0.2,3.4,0.7c1,0.5,1.9,1.1,2.7,1.9s1.3,1.7,1.7,2.8C162,63.1,162.2,64.3,162.2,65.6L162.2,65.6z"/>
		<polygon fill="#FFFFFF" points="188.3,53.1 168.3,53.1 168.3,57.1 176.1,57.1 176.1,77.8 180.5,77.8 180.5,57.1 188.3,57.1 		"/>
		<path fill="#FFFFFF" d="M197.7,52.9l-10.9,24.9h4.4l2.5-6h11.7l2.5,6h4.6l-10.9-24.9H197.7z M195.4,68l4.2-9.9l4.3,9.9H195.4z"/>
		<path fill="#FFFFFF" d="M226.3,67.8h6.3v4.7c-0.8,0.6-1.6,1-2.7,1.4c-1,0.3-2.1,0.5-3.3,0.5c-1.3,0-2.4-0.2-3.4-0.7
			c-1-0.4-1.9-1.1-2.6-1.8c-0.7-0.8-1.3-1.7-1.7-2.8c-0.4-1.1-0.6-2.3-0.6-3.5v-0.1c0-1.2,0.2-2.3,0.6-3.4c0.4-1.1,1-2,1.7-2.8
			c0.7-0.8,1.6-1.4,2.5-1.9c1-0.5,2-0.7,3.2-0.7c0.8,0,1.5,0.1,2.1,0.2c0.6,0.1,1.2,0.3,1.8,0.5c0.5,0.2,1.1,0.5,1.6,0.8
			c0.5,0.3,1,0.7,1.4,1.1l2.8-3.3c-0.6-0.5-1.3-1-2-1.4c-0.7-0.4-1.4-0.8-2.1-1c-0.8-0.3-1.6-0.5-2.5-0.7s-1.9-0.2-2.9-0.2
			c-1.9,0-3.6,0.3-5.1,1c-1.6,0.7-2.9,1.6-4.1,2.8c-1.1,1.2-2,2.5-2.6,4.1c-0.6,1.6-0.9,3.2-0.9,4.9v0.1c0,1.8,0.3,3.5,0.9,5
			c0.6,1.5,1.5,2.9,2.6,4c1.1,1.1,2.5,2,4,2.7c1.6,0.6,3.3,1,5.3,1c1.1,0,2.1-0.1,3.1-0.3c1-0.2,1.9-0.5,2.8-0.8
			c0.9-0.4,1.7-0.8,2.4-1.2c0.7-0.5,1.4-1,2-1.5V64h-10.5V67.8z"/>
		<polygon fill="#FFFFFF" points="245.4,67.3 257.7,67.3 257.7,63.4 245.4,63.4 245.4,57 259.3,57 259.3,53.1 241.1,53.1 
			241.1,77.8 259.5,77.8 259.5,73.9 245.4,73.9 		"/>
		<path fill="#FFFFFF" d="M280.4,67.5c0.7-0.4,1.3-1,1.9-1.6c0.5-0.6,0.9-1.3,1.2-2.2c0.3-0.8,0.4-1.7,0.4-2.7v-0.1
			c0-1.1-0.2-2.1-0.5-3c-0.4-0.9-0.9-1.7-1.5-2.4c-0.8-0.8-1.8-1.4-3-1.8c-1.2-0.4-2.6-0.7-4.1-0.7h-11v24.7h4.3v-8.6h5.4h0.1
			l6.1,8.6h5.1l-6.7-9.4C278.9,68.2,279.7,67.9,280.4,67.5 M268,65.4V57h6.3c1.6,0,2.9,0.4,3.8,1c0.9,0.7,1.3,1.7,1.3,3.1v0.1
			c0,1.3-0.5,2.3-1.4,3c-0.9,0.7-2.2,1.1-3.7,1.1H268z"/>
		<path fill="#FFFFFF" d="M18.9,94.6V89c0-0.3,0.3-0.6,0.6-0.6c0.3,0,0.6,0.3,0.6,0.6v5.5c0,2.3,1.2,3.6,3.2,3.6
			c1.9,0,3.2-1.2,3.2-3.5V89c0-0.3,0.3-0.6,0.6-0.6c0.3,0,0.6,0.3,0.6,0.6v5.5c0,3.1-1.8,4.7-4.4,4.7C20.7,99.2,18.9,97.6,18.9,94.6
			"/>
		<path fill="#FFFFFF" d="M30.6,91.8c0-0.3,0.3-0.6,0.6-0.6c0.3,0,0.6,0.3,0.6,0.6v0.8c0.5-0.8,1.3-1.5,2.7-1.5c1.9,0,3,1.3,3,3.1
			v4.3c0,0.3-0.3,0.6-0.6,0.6c-0.3,0-0.6-0.3-0.6-0.6v-4c0-1.4-0.8-2.4-2.2-2.4c-1.3,0-2.3,1-2.3,2.4v4c0,0.3-0.2,0.6-0.6,0.6
			s-0.6-0.3-0.6-0.6V91.8z"/>
		<path fill="#FFFFFF" d="M44.4,95.2L44.4,95.2c0-2.2,1.7-4.1,4-4.1c1.3,0,2.2,0.5,2.9,1.1c0.1,0.1,0.2,0.2,0.2,0.4
			c0,0.3-0.3,0.6-0.6,0.6c-0.2,0-0.3-0.1-0.4-0.1c-0.6-0.5-1.2-0.9-2.1-0.9c-1.6,0-2.8,1.3-2.8,3v0c0,1.7,1.2,3,2.9,3
			c0.9,0,1.6-0.4,2.2-1c0.1-0.1,0.2-0.2,0.3-0.2c0.3,0,0.5,0.3,0.5,0.5c0,0.1-0.1,0.3-0.2,0.4c-0.7,0.7-1.6,1.3-2.9,1.3
			C46.1,99.2,44.4,97.4,44.4,95.2"/>
		<path fill="#FFFFFF" d="M53.8,88.6c0-0.3,0.3-0.6,0.6-0.6c0.3,0,0.6,0.3,0.6,0.6v10c0,0.3-0.2,0.6-0.6,0.6c-0.3,0-0.6-0.3-0.6-0.6
			V88.6z"/>
		<path fill="#FFFFFF" d="M57.9,88.8c0-0.4,0.3-0.6,0.7-0.6c0.4,0,0.7,0.2,0.7,0.6V89c0,0.4-0.3,0.6-0.7,0.6c-0.4,0-0.7-0.3-0.7-0.6
			V88.8z M58,91.8c0-0.3,0.3-0.6,0.6-0.6c0.3,0,0.6,0.3,0.6,0.6v6.8c0,0.3-0.2,0.6-0.6,0.6c-0.3,0-0.6-0.3-0.6-0.6V91.8z"/>
		<path fill="#FFFFFF" d="M61.6,95.2L61.6,95.2c0-2.2,1.7-4.1,4-4.1c1.3,0,2.2,0.5,2.9,1.1c0.1,0.1,0.2,0.2,0.2,0.4
			c0,0.3-0.3,0.6-0.6,0.6c-0.2,0-0.3-0.1-0.4-0.1c-0.6-0.5-1.2-0.9-2.1-0.9c-1.6,0-2.8,1.3-2.8,3v0c0,1.7,1.2,3,2.9,3
			c0.9,0,1.6-0.4,2.2-1c0.1-0.1,0.2-0.2,0.3-0.2c0.3,0,0.5,0.3,0.5,0.5c0,0.1-0.1,0.3-0.2,0.4c-0.7,0.7-1.6,1.3-2.9,1.3
			C63.3,99.2,61.6,97.4,61.6,95.2"/>
		<path fill="#FFFFFF" d="M70.5,100.3c0.6-0.3,0.9-0.6,0.8-1.2c-0.3-0.1-0.6-0.3-0.6-0.7v-0.2c0-0.4,0.3-0.7,0.7-0.7
			c0.4,0,0.7,0.3,0.7,0.8v0.3c0,0.9-0.2,1.5-0.5,1.8c-0.3,0.3-0.8,0.5-1,0.5c-0.2,0-0.3-0.1-0.3-0.3
			C70.3,100.4,70.4,100.3,70.5,100.3"/>
		<path fill="#FFFFFF" d="M87.1,98.5c0,0.3-0.3,0.6-0.6,0.6c-0.3,0-0.6-0.3-0.6-0.6v-1.1c-0.6,0.9-1.6,1.7-3,1.7
			c-1.9,0-3.7-1.5-3.7-4v0c0-2.5,1.9-4.1,3.7-4.1c1.4,0,2.4,0.8,3,1.7v-4.2c0-0.3,0.2-0.6,0.6-0.6c0.3,0,0.6,0.3,0.6,0.6V98.5z
			 M80.4,95.1L80.4,95.1c0,1.9,1.3,3,2.7,3c1.4,0,2.8-1.2,2.8-3v0c0-1.8-1.4-3-2.8-3C81.6,92.1,80.4,93.2,80.4,95.1"/>
		<path fill="#FFFFFF" d="M93.3,99.2c-2.1,0-3.9-1.6-3.9-4.1v0c0-2.3,1.6-4.1,3.7-4.1c2.3,0,3.6,1.9,3.6,4c0,0.3-0.3,0.5-0.5,0.5
			h-5.6c0.2,1.7,1.4,2.6,2.7,2.6c1,0,1.7-0.4,2.2-0.9c0.1-0.1,0.2-0.1,0.3-0.1c0.3,0,0.5,0.2,0.5,0.5c0,0.1-0.1,0.3-0.2,0.4
			C95.5,98.8,94.6,99.2,93.3,99.2 M95.6,94.7c-0.1-1.4-0.9-2.7-2.5-2.7c-1.4,0-2.4,1.1-2.5,2.7H95.6z"/>
		<path fill="#FFFFFF" d="M98.6,98.2c-0.1-0.1-0.2-0.2-0.2-0.4c0-0.3,0.2-0.5,0.5-0.5c0.1,0,0.2,0,0.3,0.1c0.8,0.5,1.6,0.8,2.5,0.8
			c0.9,0,1.6-0.5,1.6-1.2v0c0-0.8-0.9-1.1-1.9-1.4c-1.2-0.3-2.6-0.8-2.6-2.2v0c0-1.3,1.1-2.2,2.7-2.2c0.8,0,1.7,0.3,2.5,0.7
			c0.2,0.1,0.3,0.3,0.3,0.5c0,0.3-0.2,0.5-0.5,0.5c-0.1,0-0.2,0-0.3-0.1c-0.7-0.4-1.4-0.6-2-0.6c-0.9,0-1.5,0.5-1.5,1.1v0
			c0,0.7,1,1,2,1.3c1.2,0.4,2.5,0.8,2.5,2.2v0c0,1.5-1.2,2.3-2.8,2.3C100.6,99.2,99.5,98.8,98.6,98.2"/>
		<path fill="#FFFFFF" d="M111.6,88.6c0-0.3,0.3-0.6,0.6-0.6c0.3,0,0.6,0.3,0.6,0.6v10c0,0.3-0.2,0.6-0.6,0.6
			c-0.3,0-0.6-0.3-0.6-0.6V88.6z"/>
		<path fill="#FFFFFF" d="M119.1,99.2c-2.1,0-3.9-1.6-3.9-4.1v0c0-2.3,1.6-4.1,3.7-4.1c2.3,0,3.6,1.9,3.6,4c0,0.3-0.3,0.5-0.5,0.5
			h-5.6c0.2,1.7,1.4,2.6,2.7,2.6c1,0,1.7-0.4,2.2-0.9c0.1-0.1,0.2-0.1,0.3-0.1c0.3,0,0.5,0.2,0.5,0.5c0,0.1-0.1,0.3-0.2,0.4
			C121.3,98.8,120.5,99.2,119.1,99.2 M121.4,94.7c-0.1-1.4-0.9-2.7-2.5-2.7c-1.4,0-2.4,1.1-2.5,2.7H121.4z M118.7,89.9
			c0-0.1,0-0.2,0.1-0.2l0.9-1.4c0.2-0.2,0.3-0.3,0.5-0.3c0.4,0,0.8,0.2,0.8,0.5c0,0.1-0.1,0.2-0.2,0.3l-1.1,1.1
			c-0.2,0.2-0.4,0.3-0.7,0.3C118.8,90.1,118.7,90,118.7,89.9"/>
		<path fill="#FFFFFF" d="M125.1,100.6c-0.2-0.1-0.3-0.3-0.3-0.5c0-0.3,0.3-0.5,0.5-0.5c0.1,0,0.2,0,0.3,0.1
			c0.8,0.5,1.7,0.8,2.8,0.8c1.7,0,2.8-0.9,2.8-2.8v-0.9c-0.7,0.9-1.6,1.6-3.1,1.6c-1.9,0-3.7-1.4-3.7-3.7v0c0-2.3,1.8-3.7,3.7-3.7
			c1.5,0,2.4,0.7,3.1,1.6v-0.9c0-0.3,0.2-0.6,0.6-0.6s0.6,0.3,0.6,0.6v5.9c0,1.2-0.4,2.1-1,2.8c-0.7,0.7-1.7,1-3,1
			C127.2,101.5,126.1,101.2,125.1,100.6 M131.2,94.8L131.2,94.8c0-1.6-1.4-2.7-2.9-2.7c-1.5,0-2.7,1-2.7,2.6v0
			c0,1.6,1.3,2.7,2.7,2.7C129.8,97.4,131.2,96.4,131.2,94.8"/>
		<path fill="#FFFFFF" d="M141.8,98.5c0,0.3-0.2,0.6-0.6,0.6c-0.3,0-0.6-0.3-0.6-0.6v-0.8c-0.5,0.8-1.3,1.5-2.7,1.5
			c-1.9,0-3-1.3-3-3.1v-4.3c0-0.3,0.2-0.6,0.6-0.6c0.3,0,0.6,0.3,0.6,0.6v4c0,1.4,0.8,2.4,2.2,2.4c1.3,0,2.3-1,2.3-2.4v-4
			c0-0.3,0.2-0.6,0.6-0.6c0.3,0,0.6,0.3,0.6,0.6V98.5z"/>
		<path fill="#FFFFFF" d="M144.7,91.8c0-0.3,0.3-0.6,0.6-0.6c0.3,0,0.6,0.3,0.6,0.6v0.8c0.5-0.8,1.2-1.5,2.5-1.5
			c1.3,0,2.1,0.7,2.5,1.6c0.6-0.9,1.4-1.6,2.7-1.6c1.8,0,2.9,1.2,2.9,3.1v4.3c0,0.3-0.3,0.6-0.6,0.6c-0.3,0-0.6-0.3-0.6-0.6v-4
			c0-1.5-0.8-2.4-2-2.4c-1.2,0-2.1,0.9-2.1,2.4v4c0,0.3-0.3,0.6-0.6,0.6c-0.3,0-0.6-0.3-0.6-0.6v-4.1c0-1.5-0.8-2.3-2-2.3
			c-1.2,0-2.2,1-2.2,2.5v3.9c0,0.3-0.2,0.6-0.6,0.6c-0.3,0-0.6-0.3-0.6-0.6V91.8z"/>
		<path fill="#FFFFFF" d="M162.7,99.2c-2.1,0-3.9-1.6-3.9-4.1v0c0-2.3,1.6-4.1,3.7-4.1c2.3,0,3.6,1.9,3.6,4c0,0.3-0.3,0.5-0.5,0.5
			h-5.6c0.2,1.7,1.4,2.6,2.7,2.6c1,0,1.7-0.4,2.3-0.9c0.1-0.1,0.2-0.1,0.3-0.1c0.3,0,0.5,0.2,0.5,0.5c0,0.1-0.1,0.3-0.2,0.4
			C164.9,98.8,164,99.2,162.7,99.2 M165,94.7c-0.1-1.4-0.9-2.7-2.5-2.7c-1.4,0-2.4,1.1-2.5,2.7H165z"/>
		<path fill="#FFFFFF" d="M168,98.2c-0.1-0.1-0.2-0.2-0.2-0.4c0-0.3,0.2-0.5,0.5-0.5c0.1,0,0.2,0,0.3,0.1c0.8,0.5,1.6,0.8,2.5,0.8
			c0.9,0,1.6-0.5,1.6-1.2v0c0-0.8-0.9-1.1-1.9-1.4c-1.2-0.3-2.6-0.8-2.6-2.2v0c0-1.3,1.1-2.2,2.7-2.2c0.8,0,1.7,0.3,2.5,0.7
			c0.2,0.1,0.3,0.3,0.3,0.5c0,0.3-0.2,0.5-0.5,0.5c-0.1,0-0.2,0-0.3-0.1c-0.7-0.4-1.4-0.6-2-0.6c-0.9,0-1.5,0.5-1.5,1.1v0
			c0,0.7,1,1,2,1.3c1.2,0.4,2.5,0.8,2.5,2.2v0c0,1.5-1.2,2.3-2.8,2.3C170,99.2,168.8,98.8,168,98.2"/>
		<path fill="#FFFFFF" d="M184.3,99.2c-2.1,0-3.9-1.6-3.9-4.1v0c0-2.3,1.6-4.1,3.7-4.1c2.3,0,3.6,1.9,3.6,4c0,0.3-0.3,0.5-0.5,0.5
			h-5.6c0.2,1.7,1.4,2.6,2.7,2.6c1,0,1.7-0.4,2.2-0.9c0.1-0.1,0.2-0.1,0.3-0.1c0.3,0,0.5,0.2,0.5,0.5c0,0.1-0.1,0.3-0.2,0.4
			C186.5,98.8,185.6,99.2,184.3,99.2 M186.6,94.7c-0.1-1.4-0.9-2.7-2.5-2.7c-1.4,0-2.4,1.1-2.5,2.7H186.6z"/>
		<path fill="#FFFFFF" d="M190.5,97v-4.7h-0.6c-0.3,0-0.5-0.2-0.5-0.5c0-0.3,0.2-0.5,0.5-0.5h0.6v-1.8c0-0.3,0.2-0.6,0.6-0.6
			c0.3,0,0.6,0.3,0.6,0.6v1.8h2c0.3,0,0.5,0.2,0.5,0.5c0,0.3-0.2,0.5-0.5,0.5h-2v4.6c0,0.9,0.5,1.3,1.3,1.3c0.4,0,0.6-0.1,0.7-0.1
			c0.3,0,0.5,0.2,0.5,0.5c0,0.2-0.1,0.4-0.3,0.5c-0.3,0.1-0.7,0.2-1.2,0.2C191.4,99.2,190.5,98.6,190.5,97"/>
		<path fill="#FFFFFF" d="M208.6,98.5c0,0.3-0.3,0.6-0.6,0.6c-0.3,0-0.6-0.3-0.6-0.6v-1.1c-0.6,0.9-1.6,1.7-3,1.7
			c-1.9,0-3.7-1.5-3.7-4v0c0-2.5,1.9-4.1,3.7-4.1c1.4,0,2.4,0.8,3,1.7v-4.2c0-0.3,0.2-0.6,0.6-0.6c0.3,0,0.6,0.3,0.6,0.6V98.5z
			 M201.9,95.1L201.9,95.1c0,1.9,1.3,3,2.7,3c1.4,0,2.8-1.2,2.8-3v0c0-1.8-1.4-3-2.8-3C203.1,92.1,201.9,93.2,201.9,95.1"/>
		<path fill="#FFFFFF" d="M218.1,98.5c0,0.3-0.2,0.6-0.6,0.6c-0.3,0-0.6-0.3-0.6-0.6v-0.8c-0.5,0.8-1.3,1.5-2.7,1.5
			c-1.9,0-3-1.3-3-3.1v-4.3c0-0.3,0.2-0.6,0.6-0.6c0.3,0,0.6,0.3,0.6,0.6v4c0,1.4,0.8,2.4,2.2,2.4c1.3,0,2.3-1,2.3-2.4v-4
			c0-0.3,0.2-0.6,0.6-0.6c0.3,0,0.6,0.3,0.6,0.6V98.5z"/>
		<path fill="#FFFFFF" d="M225.9,100.6c-0.2-0.1-0.3-0.3-0.3-0.5c0-0.3,0.3-0.5,0.5-0.5c0.1,0,0.2,0,0.3,0.1
			c0.8,0.5,1.7,0.8,2.8,0.8c1.7,0,2.8-0.9,2.8-2.8v-0.9c-0.7,0.9-1.6,1.6-3.1,1.6c-1.9,0-3.7-1.4-3.7-3.7v0c0-2.3,1.8-3.7,3.7-3.7
			c1.5,0,2.4,0.7,3,1.6v-0.9c0-0.3,0.2-0.6,0.6-0.6c0.3,0,0.6,0.3,0.6,0.6v5.9c0,1.2-0.4,2.1-1,2.8c-0.7,0.7-1.7,1-3,1
			C227.9,101.5,226.8,101.2,225.9,100.6 M232,94.8L232,94.8c0-1.6-1.4-2.7-2.9-2.7c-1.5,0-2.7,1-2.7,2.6v0c0,1.6,1.3,2.7,2.7,2.7
			C230.6,97.4,232,96.4,232,94.8"/>
		<path fill="#FFFFFF" d="M235.4,95.2L235.4,95.2c0-2.2,1.7-4.1,4.1-4.1c2.3,0,4.1,1.8,4.1,4v0c0,2.2-1.7,4.1-4.1,4.1
			C237.1,99.2,235.4,97.4,235.4,95.2 M242.4,95.2L242.4,95.2c0-1.7-1.2-3.1-2.9-3.1c-1.7,0-2.9,1.4-2.9,3v0c0,1.7,1.2,3,2.9,3
			C241.2,98.2,242.4,96.8,242.4,95.2"/>
		<path fill="#FFFFFF" d="M252.6,98.5c0,0.3-0.2,0.6-0.6,0.6c-0.3,0-0.6-0.3-0.6-0.6v-0.8c-0.5,0.8-1.3,1.5-2.7,1.5
			c-1.9,0-3-1.3-3-3.1v-4.3c0-0.3,0.2-0.6,0.6-0.6c0.3,0,0.6,0.3,0.6,0.6v4c0,1.4,0.8,2.4,2.2,2.4c1.3,0,2.3-1,2.3-2.4v-4
			c0-0.3,0.2-0.6,0.6-0.6c0.3,0,0.6,0.3,0.6,0.6V98.5z M248.3,89.9c-0.3,0.2-0.4,0.3-0.7,0.3c-0.2,0-0.3-0.1-0.3-0.2
			c0-0.1,0-0.2,0.1-0.3l1.1-1.3c0.2-0.2,0.3-0.3,0.6-0.3h0.3c0.3,0,0.4,0.1,0.6,0.3l1.1,1.3c0.1,0.1,0.1,0.2,0.1,0.3
			c0,0.1-0.1,0.2-0.3,0.2c-0.3,0-0.5,0-0.7-0.3l-0.9-0.8L248.3,89.9z"/>
		<path fill="#FFFFFF" d="M255.8,97v-4.7h-0.6c-0.3,0-0.5-0.2-0.5-0.5c0-0.3,0.2-0.5,0.5-0.5h0.6v-1.8c0-0.3,0.2-0.6,0.6-0.6
			c0.3,0,0.6,0.3,0.6,0.6v1.8h2c0.3,0,0.5,0.2,0.5,0.5c0,0.3-0.2,0.5-0.5,0.5h-2v4.6c0,0.9,0.5,1.3,1.3,1.3c0.4,0,0.6-0.1,0.7-0.1
			c0.3,0,0.5,0.2,0.5,0.5c0,0.2-0.1,0.4-0.3,0.5c-0.3,0.1-0.7,0.2-1.1,0.2C256.8,99.2,255.8,98.6,255.8,97"/>
		<polygon fill="#FFFFFF" points="143.8,49 143.8,24.3 142,24.3 132.1,38.9 122.2,24.3 120.5,24.3 120.5,49 122.2,49 122.2,27.5 
			132,41.8 132.1,41.8 141.9,27.5 141.9,49 		"/>
	</g>
	<path clip-path="url(#SVGID_2_)" fill="#EAE1C1" d="M87.1,73.4c0,2.8,2.5,5.1,5.6,5.1h2.5c3.1,0,5.6-2.3,5.6-5.1V48.9H87.1V73.4z"
		/>
	<polygon clip-path="url(#SVGID_2_)" fill="#51A754" points="98.2,14.1 98.2,6.7 89.7,6.7 89.7,14.2 93.9,24.3 	"/>
	<path clip-path="url(#SVGID_2_)" fill="#7AC458" d="M110.6,6.7h-8.2c-0.6,0-1.4,0.5-1.6,1.1l-2.6,6.3l-4.2,10.3l-4.2-10.2l-2.6-6.4
		c-0.3-0.6-1-1.1-1.6-1.1h-8.2c-0.6,0-0.9,0.5-0.6,1l10.5,19.1V32v16.8h13.6V32v-4.8l10.4-19.5C111.5,7.2,111.3,6.7,110.6,6.7"/>
	<path clip-path="url(#SVGID_2_)" fill="#FFFFFF" d="M91.5,37.5c0,0.7-0.6,1.3-1.3,1.3c-0.7,0-1.3-0.6-1.3-1.3
		c0-0.7,0.6-1.3,1.3-1.3C90.9,36.2,91.5,36.8,91.5,37.5"/>
	<path clip-path="url(#SVGID_2_)" fill="#FFFFFF" d="M99,37.5c0,0.7-0.6,1.3-1.3,1.3c-0.7,0-1.3-0.6-1.3-1.3c0-0.7,0.6-1.3,1.3-1.3
		C98.4,36.2,99,36.8,99,37.5"/>
	<path clip-path="url(#SVGID_2_)" fill="#75C576" d="M57.8,27.9c1.9-1,8.1-1.7,9.3-1.8c-2-2.2-3.2-3.8-7.3-4.4
		c-0.2,0-0.4-0.1-0.6-0.1v-5.2c0-0.7-0.5-1.2-1.2-1.2l-0.9,0c-0.5,0-1,0.4-1.2,0.9v5.6c-0.8,0.1-1.6,0.4-2.3,0.7
		c-3.6,1.1-5.1,3.3-5.2,4C49.4,26,55.9,26.9,57.8,27.9"/>
	<path clip-path="url(#SVGID_2_)" fill="#F8382C" d="M79.4,31.3c0.1-12.6-20.1-5-21.6-3.5c-1.5-1.6-21.7-9.3-21.6,3.5
		c-0.9,11.1,4,36.3,4.2,37.2c1,5.5,5,10,10.8,10c3.9,0,5.1-0.7,6.7-1.1c1.5,0.3,3,1.1,6.5,1.1c5.1,0,9.4-3.8,10.2-8.8
		C75.3,68.5,80.3,42.5,79.4,31.3"/>
	<path clip-path="url(#SVGID_2_)" fill="#FFFFFF" d="M55.3,37.5c0,0.7-0.6,1.3-1.3,1.3c-0.7,0-1.3-0.6-1.3-1.3
		c0-0.7,0.6-1.3,1.3-1.3C54.7,36.2,55.3,36.7,55.3,37.5"/>
	<path clip-path="url(#SVGID_2_)" fill="#FFFFFF" d="M63,37.5c0,0.7-0.6,1.3-1.3,1.3c-0.7,0-1.3-0.6-1.3-1.3c0-0.7,0.6-1.3,1.3-1.3
		C62.5,36.2,63,36.7,63,37.5"/>
	<path clip-path="url(#SVGID_2_)" fill="#FB7335" d="M9.6,37.7c-2-6.8,2.2-12.4,9.4-12.4h1.5c7.2,0,11.4,5.6,9.4,12.4l-6.5,35.2
		c-2,6.8-5.3,6.8-7.3,0L9.6,37.7z"/>
	<path clip-path="url(#SVGID_2_)" fill="#7AC458" d="M16.6,23.5c-0.5,0-1.2-0.4-1.4-0.9L9.7,11c-0.2-0.5,0-0.9,0.6-0.9l1.2,0
		c0.5,0,1.2,0.4,1.4,0.9l2.3,4.7c0.2,0.5,0.6,0.4,0.6-0.1l-0.2-7.7c0-0.5,0.4-1,1-1l1.7,0c0.5,0,1,0.4,1,1l0,10.3c0,0.5,0.1,1,0.3,1
		c0.2,0,0.3-0.4,0.3-1l0-5c0-0.5,0.4-1,1-1l0.7,0c0.5,0,1,0.4,1,1l0,5.3c0,0.5,0.1,0.6,0.3,0.1l3.4-9.2c0.2-0.5,0.8-0.9,1.3-0.9
		l2.1,0c0.5,0,0.8,0.4,0.6,0.9l-4.7,13.2c-0.2,0.5-0.8,0.9-1.3,0.9L16.6,23.5z"/>
	<path clip-path="url(#SVGID_2_)" fill="#FFFFFF" d="M17.5,37.5c0,0.7-0.6,1.3-1.3,1.3c-0.7,0-1.3-0.6-1.3-1.3
		c0-0.7,0.6-1.3,1.3-1.3C16.9,36.2,17.5,36.8,17.5,37.5"/>
	<path clip-path="url(#SVGID_2_)" fill="#FFFFFF" d="M25,37.5c0,0.7-0.6,1.3-1.3,1.3c-0.7,0-1.3-0.6-1.3-1.3c0-0.7,0.6-1.3,1.3-1.3
		C24.4,36.2,25,36.8,25,37.5"/>
	<path clip-path="url(#SVGID_2_)" fill="#7AC458" d="M327.1,91.9c0.2,2.4-1.7,4.4-4,4.6l-43.9,2.9c-2.4,0.2-4.5-1.7-4.6-4l-1.1-16.6
		c-0.2-2.4,1.7-4.4,4-4.6l43.9-2.9c2.4-0.2,4.5,1.7,4.6,4L327.1,91.9z"/>
	
		<rect x="281.1" y="89.4" transform="matrix(-0.9979 6.535081e-02 -6.535081e-02 -0.9979 569.5148 162.1552)" clip-path="url(#SVGID_2_)" fill="#FFFFFF" width="2" height="2.1"/>
	<path clip-path="url(#SVGID_2_)" fill="#FFFFFF" d="M289.8,89.4c-2,0.1-3.6-1.5-3.7-3.5c-0.1-2.1,1.2-3.8,3.2-4
		c1.2-0.1,2.1,0.4,3,1.1l1.1-1.4c-1.1-0.9-2.3-1.5-4.2-1.4c-3.2,0.2-5.3,2.8-5.1,5.8c0.2,3,2.6,5.3,5.7,5.1c2-0.1,3.1-0.9,4.1-2.1
		l-1.3-1.1C291.9,88.7,291.1,89.3,289.8,89.4"/>
	<path clip-path="url(#SVGID_2_)" fill="#FFFFFF" d="M300.1,79.5c-3.2,0.2-5.3,2.8-5.2,5.8c0.2,3,2.6,5.3,5.8,5.1
		c3.2-0.2,5.3-2.8,5.2-5.8C305.7,81.6,303.3,79.3,300.1,79.5 M300.7,88.7c-2.1,0.1-3.7-1.5-3.8-3.5c-0.1-2.1,1.2-3.8,3.3-4
		c2.1-0.1,3.7,1.5,3.8,3.5C304.1,86.8,302.8,88.5,300.7,88.7"/>
	<polygon clip-path="url(#SVGID_2_)" fill="#FFFFFF" points="316.2,78.6 313.3,83.8 309.8,79 307.8,79.2 308.5,89.7 310.3,89.6 
		309.8,82.1 313.4,86.8 313.5,86.8 316.5,81.6 317,89.1 318.8,89 318.1,78.5 	"/>
</g>
</svg>
